PathFileType	4	(X/Y/Z)	C:/Users/opensim2020/Desktop/walking_exp_matlab/subject01_walking14_straight_04.trc	
DataRate	CameraRate	NumFrames	NumMarkers	Units	OrigDataRate	OrigDataStartFrame	OrigNumFrames	
100.00	100.00	8	42	mm	100.00	2129	89	
Frame#	Time	LFHD			RFHD			LBHD			RBHD			C7			T10			CLAV			STRN			RBAK			LSHO			LUPA			LELB			LFRM			LWRA			LWRB			LFIN			RSHO			RUPA			RELB			RFRM			RWRA			RWRB			RFIN			LASI			RASI			LPSI			RPSI			LTHI			LKNE			LTIB			LANK			LHEE			LTOE			RTHI			RKNE			RTIB			RANK			RHEE			RTOE			*39			*40			*41			
		X1	Y1	Z1	X2	Y2	Z2	X3	Y3	Z3	X4	Y4	Z4	X5	Y5	Z5	X6	Y6	Z6	X7	Y7	Z7	X8	Y8	Z8	X9	Y9	Z9	X10	Y10	Z10	X11	Y11	Z11	X12	Y12	Z12	X13	Y13	Z13	X14	Y14	Z14	X15	Y15	Z15	X16	Y16	Z16	X17	Y17	Z17	X18	Y18	Z18	X19	Y19	Z19	X20	Y20	Z20	X21	Y21	Z21	X22	Y22	Z22	X23	Y23	Z23	X24	Y24	Z24	X25	Y25	Z25	X26	Y26	Z26	X27	Y27	Z27	X28	Y28	Z28	X29	Y29	Z29	X30	Y30	Z30	X31	Y31	Z31	X32	Y32	Z32	X33	Y33	Z33	X34	Y34	Z34	X35	Y35	Z35	X36	Y36	Z36	X37	Y37	Z37	X38	Y38	Z38	X39	Y39	Z39	X40	Y40	Z40	X41	Y41	Z41	X42	Y42	Z42	

56	0.550	-1048.45654	-73.54865	1643.83325	-1147.33167	-130.80164	1648.11902	-1105.27588	33.79570	1612.31812	-1209.46729	-24.29987	1616.08472	-1132.75403	76.23107	1419.06519	-1135.81421	127.50874	1125.62207	-1127.28284	-67.62173	1345.62817	-1128.05872	-101.88733	1189.87170	-1213.78455	139.37901	1232.22180	-970.37372	-0.54183	1382.10791	-886.10498	77.48005	1213.93494	-890.05548	135.36047	1078.22412	-863.94592	145.84985	965.81396	-873.53961	123.48083	826.89490	-857.88300	177.04156	847.38239	-839.51208	168.71986	765.95380	-1274.84949	-5.51660	1391.44922	-1393.52136	43.86647	1205.74329	-1415.34692	22.18847	1079.35938	-1426.07910	-77.40029	1000.31445	-1378.09021	-205.85350	967.66382	-1421.56030	-183.13982	938.57104	-1411.25354	-263.62079	913.58362	-1041.83032	-58.17526	918.95886	-1258.09766	-33.92736	918.49921	-1068.65662	131.89201	927.94775	-1210.63354	146.16354	941.63660	-977.20758	-107.93827	598.84125	-1005.35791	-143.53883	474.83563	-1003.43536	-155.22076	287.25101	-1062.15906	-221.32666	74.63319	-1124.48840	-198.19547	34.50810	-1042.33362	-364.83630	88.79863	-1310.69080	106.30777	604.64551	-1288.64490	147.02274	447.02487	-1289.04602	263.01593	312.06161	-1243.32056	359.91599	125.37659	-1190.01367	414.62909	110.45628	-1241.77002	245.20142	35.88045	-1129.26025	-114.63010	1682.35754	-3102.00098	1973.12317	1023.90131	-3140.73096	2012.55493	1022.12878 
57	0.560	-1045.65515	-87.16826	1642.63611	-1144.32458	-144.19722	1647.06946	-1102.50256	20.09469	1610.98657	-1206.72754	-37.98055	1614.97375	-1129.74805	62.13882	1417.48621	-1134.49036	111.93596	1123.92041	-1124.79297	-81.84427	1344.54846	-1126.28076	-116.74265	1189.01440	-1211.70349	125.01351	1230.80127	-967.81488	-14.52527	1380.23303	-884.28821	63.25690	1211.44873	-889.39838	120.81083	1075.87854	-863.23279	132.10942	963.67334	-872.99890	110.31823	824.72253	-857.29053	164.06743	845.37872	-839.74890	156.20107	763.61145	-1272.62256	-19.46052	1390.57263	-1391.71484	30.47156	1205.23511	-1414.18054	8.73410	1079.03735	-1425.06909	-90.99068	1000.33038	-1376.80115	-219.43692	967.95557	-1420.53149	-196.90051	938.98328	-1409.96021	-277.54929	914.26843	-1041.39954	-74.15009	917.90540	-1257.78125	-49.36031	917.47992	-1067.31909	116.11186	926.51331	-1209.07446	130.84659	940.12030	-979.27582	-125.95481	598.80994	-1006.10901	-159.39810	473.64542	-1004.58197	-168.91330	285.24692	-1064.09875	-231.65604	71.81980	-1126.24280	-207.55939	32.53157	-1045.30066	-375.58670	84.44302	-1311.09302	91.18671	603.76849	-1289.75525	132.39137	445.86545	-1290.41150	252.43114	314.45157	-1245.39990	355.40576	130.69612	-1191.72192	409.93503	118.06940	-1241.96045	244.65698	35.91776	-1126.36243	-128.27567	1681.46912	-3102.07642	1973.03687	1023.50952	-3140.55151	2012.57874	1022.15070 
58	0.570	-1042.68750	-100.69089	1641.49756	-1141.47717	-157.84651	1646.07056	-1099.49121	6.50851	1609.57373	-1203.73169	-51.57937	1613.75000	-1127.03845	48.03872	1416.00586	-1132.96082	97.38795	1122.34167	-1122.36804	-96.16728	1343.58435	-1124.40088	-131.68002	1188.15552	-1209.58459	110.52752	1229.35071	-965.06177	-28.66480	1378.37744	-882.40167	48.68121	1208.98926	-888.15887	106.22549	1073.58679	-862.39813	117.84531	961.37939	-873.03931	96.87828	822.22614	-856.84271	150.13406	843.16260	-839.80267	142.65137	761.16956	-1269.74854	-33.53001	1389.50806	-1389.50720	17.22197	1204.65332	-1412.91809	-4.35775	1078.71008	-1423.89954	-104.14490	1000.13239	-1375.53394	-232.45334	967.61133	-1419.50842	-210.17206	938.90674	-1408.83179	-290.78635	914.17474	-1040.74512	-90.50099	916.98755	-1257.17834	-64.88922	916.42578	-1066.01086	100.02303	924.97089	-1207.52063	115.41693	938.59106	-981.60474	-143.50485	598.83160	-1007.14233	-175.24794	472.40820	-1005.77753	-181.87184	282.95834	-1065.90820	-239.94861	69.06090	-1126.97424	-213.55772	31.76596	-1048.42407	-384.16663	79.34162	-1311.58899	75.17285	602.49176	-1291.43970	116.60801	444.45673	-1291.66553	240.92656	316.72598	-1247.06335	349.59009	136.06541	-1193.43042	404.26541	126.27308	-1242.25500	244.04695	35.86666	-1123.53418	-141.94110	1680.52893	-3101.93750	1973.19299	1023.39069	-3140.72559	2012.54187	1021.99927 
59	0.580	-1039.51196	-114.19556	1640.33521	-1138.24280	-171.11337	1645.02478	-1096.43323	-7.00554	1608.06567	-1200.57446	-65.07803	1612.44470	-1124.12793	33.96729	1414.40417	-1131.20300	82.01800	1120.50513	-1119.70715	-110.50710	1342.58740	-1122.38745	-146.97638	1187.42480	-1207.32593	95.93961	1227.79773	-962.16016	-42.84800	1376.50183	-880.19836	34.11133	1206.52869	-886.23383	91.25323	1071.22180	-861.45129	102.85407	958.83368	-872.83521	82.14076	819.64423	-856.59149	135.39833	840.70074	-839.91742	128.07173	758.43726	-1267.03271	-47.48969	1388.44116	-1387.30579	4.14223	1204.05786	-1411.49719	-17.18163	1078.35425	-1422.81909	-116.91082	999.67767	-1374.44775	-245.16591	966.80969	-1418.55664	-222.80017	938.29230	-1407.87683	-303.48926	913.32605	-1039.87048	-107.01707	916.01105	-1256.43970	-80.85059	915.33594	-1064.73413	83.83781	923.40045	-1206.02087	99.51679	937.21576	-983.42609	-161.26070	598.68933	-1008.23425	-191.22105	470.94052	-1007.18695	-194.11420	280.24908	-1068.47717	-246.98645	66.28887	-1128.77490	-217.21431	31.79523	-1052.11462	-391.67148	71.10143	-1312.27856	58.38153	601.17310	-1293.13586	99.80456	442.66327	-1293.03101	228.41685	319.00119	-1249.10925	343.14438	142.00485	-1195.17273	397.54968	134.95122	-1242.51282	243.51062	35.63509	-1120.27795	-155.10098	1679.37756	-3101.92236	1973.04956	1023.31726	-3140.58521	2012.57214	1021.96033 
60	0.590	-1036.40747	-127.63379	1639.22205	-1135.19604	-184.51979	1644.26514	-1093.18091	-20.58489	1606.54199	-1197.55640	-78.54910	1611.16614	-1121.55042	20.25695	1413.25891	-1129.12488	65.94824	1118.52722	-1116.93250	-124.87844	1341.51868	-1120.32056	-162.24210	1186.77795	-1204.86206	81.36947	1226.10925	-959.09912	-57.31516	1374.65735	-877.95337	19.26754	1204.03174	-884.66479	75.88152	1068.42114	-860.45673	87.28445	956.05884	-872.64948	66.52666	817.01575	-855.97974	119.74521	837.86279	-839.99805	112.44682	755.47070	-1264.39478	-61.40676	1387.50049	-1385.08020	-8.86130	1203.47583	-1410.04553	-29.71180	1077.92712	-1421.64893	-129.25258	998.92542	-1373.32629	-257.35690	965.25177	-1417.70386	-234.94795	937.11401	-1406.98254	-315.58853	911.79572	-1038.99500	-123.07776	915.10223	-1255.42871	-97.07964	914.18884	-1063.13928	67.96281	921.88464	-1204.62268	83.51070	935.93976	-984.64795	-178.49478	597.78790	-1008.62433	-206.60876	468.76505	-1009.52863	-205.93698	278.14462	-1070.39319	-251.72952	66.28289	-1130.47888	-219.06693	33.13091	-1055.08716	-396.33276	61.02925	-1312.86255	40.66128	599.43286	-1294.99048	82.05565	440.60849	-1294.62341	214.91595	321.54471	-1251.48230	335.52676	148.31470	-1197.00854	388.81656	144.08191	-1242.75659	242.26743	35.63647	-1117.13525	-168.34917	1678.26367	-3101.94580	1973.19275	1023.55914	-3140.80542	2012.43066	1022.11096 
61	0.600	-1033.14807	-141.34663	1638.83997	-1131.94873	-198.06635	1644.14636	-1089.80481	-34.27712	1605.56750	-1194.15601	-92.12387	1610.38916	-1117.64722	6.41443	1411.82373	-1127.01099	50.97687	1117.30737	-1114.08765	-139.28050	1340.73267	-1118.14844	-177.24678	1186.45239	-1201.90625	66.63320	1224.60352	-955.87091	-71.81931	1373.03113	-875.55634	4.15437	1201.43665	-883.25391	60.25612	1065.67896	-859.30615	71.23332	953.13507	-872.43530	50.12733	814.14648	-855.32043	103.32133	834.78058	-840.03839	95.64428	752.29449	-1261.39990	-75.30173	1386.80237	-1382.74243	-21.72508	1202.97925	-1408.21460	-42.12644	1077.34692	-1420.43958	-141.21144	997.93774	-1372.36255	-269.14102	963.20245	-1416.89355	-246.61801	935.44067	-1406.40491	-327.03152	909.57642	-1038.00085	-138.81610	914.45117	-1253.81677	-112.95574	913.00848	-1061.31360	52.28697	920.58215	-1203.37402	67.46295	934.82501	-984.61462	-195.91475	596.29419	-1008.56512	-222.43138	466.82407	-1011.32275	-218.70837	278.49942	-1070.60938	-254.51390	66.52403	-1129.99792	-220.83595	34.38644	-1056.77979	-399.97684	54.05360	-1313.32544	22.03751	597.34729	-1297.20361	63.00010	438.57693	-1296.23022	199.96576	324.24554	-1254.24377	326.04150	154.90649	-1199.48486	378.47037	154.95709	-1242.79297	241.17819	35.51638	-1114.02637	-181.61555	1677.94336	-3101.85986	1973.13501	1023.56250	-3140.79224	2012.46411	1022.10840 
62	0.610	-1029.85156	-155.26239	1639.02087	-1128.64307	-211.75182	1644.54504	-1086.39221	-48.28682	1605.28015	-1190.78687	-105.94125	1610.45679	-1114.69495	-7.35824	1411.69556	-1125.27600	35.43888	1116.97375	-1111.36401	-153.55409	1340.49365	-1115.95557	-191.96857	1186.63245	-1198.65503	52.05649	1223.61206	-952.63104	-86.21437	1371.66187	-873.29193	-11.42723	1198.88342	-881.40887	44.06744	1062.77063	-858.05951	54.55833	950.07245	-872.20160	32.76617	811.36401	-854.86469	86.17319	831.61426	-840.10620	77.85527	749.12421	-1258.81812	-89.05176	1386.67651	-1380.28687	-34.56716	1202.55481	-1406.02271	-54.34446	1076.79163	-1418.97900	-152.71100	996.67761	-1371.54382	-280.47223	960.53442	-1416.18933	-257.58618	933.22797	-1405.91846	-337.74927	906.63361	-1036.77087	-154.15627	913.93256	-1252.16504	-129.16666	912.28717	-1059.64209	36.72426	920.03552	-1202.51282	51.75851	933.84827	-983.27399	-210.89453	595.56262	-1008.51245	-239.61774	467.08548	-1009.97076	-232.79907	280.59576	-1070.01453	-258.92972	66.43181	-1128.70850	-222.72334	35.83680	-1058.69043	-403.99176	47.74115	-1313.67212	2.52360	595.27222	-1299.88538	42.20387	436.80960	-1298.33130	183.12180	327.30307	-1257.17773	314.17542	161.75700	-1202.15063	365.17731	165.57458	-1242.78430	239.94579	35.39309	-1110.73096	-194.86952	1678.19080	-3101.90356	1973.04297	1023.44519	-3140.72705	2012.50537	1021.91656 
63	0.620	-1026.36938	-169.30893	1639.27332	-1125.01367	-225.71111	1645.03772	-1083.14270	-62.68904	1605.53955	-1187.28406	-119.99963	1611.00659	-1111.68860	-21.76030	1412.17188	-1123.58276	21.35297	1117.17432	-1108.74060	-167.69456	1340.88525	-1113.68738	-206.59489	1187.20654	-1195.71570	37.72395	1223.29846	-949.58038	-100.52017	1370.55774	-870.85175	-27.17154	1196.47888	-879.49829	27.29546	1059.98169	-856.70282	37.04104	947.00659	-872.00525	14.48902	808.61993	-853.75555	67.92456	828.34338	-840.06372	58.92855	745.90686	-1256.42090	-102.88955	1386.93506	-1377.43787	-47.03814	1202.44360	-1403.69958	-66.31796	1076.54565	-1417.54553	-163.77419	995.31738	-1370.72815	-291.29953	957.34119	-1415.38940	-267.90121	930.54730	-1405.64600	-347.66214	902.95825	-1035.28857	-169.46834	913.69336	-1250.28760	-144.82062	911.80695	-1058.27527	21.34579	920.49689	-1201.92456	36.18025	932.93890	-981.20343	-224.10385	595.60242	-1008.87061	-256.86713	470.01340	-1008.20099	-247.07854	282.73877	-1069.54688	-263.20435	67.12133	-1127.53430	-224.30782	36.98735	-1060.47668	-407.19647	42.74670	-1314.16248	-17.67507	593.41010	-1302.80103	19.63616	435.04553	-1300.85083	163.79633	329.99857	-1260.21497	299.57693	168.52811	-1204.98608	349.35944	176.69881	-1242.03760	238.72911	35.42122	-1107.06348	-208.44017	1678.62878	-3101.86401	1973.20520	1023.50732	-3140.78857	2012.48865	1022.09912 
